PathFileType  4	(X/Y/Z) C:\Users\antoi\Documents\MyRepositories\mobilecap\ResultsAnalysis
DataRate	CameraRate	NumFrames	NumMarkers	Units	OrigDataRate	OrigDataStartFrame	OrigNumFrames
100.0	100.0	6	51	mm	100.0	126	143
Frame#	Time	r_knee			r_shank_antsup			r_ankle			r_calc			r_5meta			r_toe			L_knee			L_shank_antsup			L_ankle			L_calc			L_5meta			L_toe			r_sh2			r_sh3			r_sh4			L_sh2			L_sh3			r_thigh1			r_thigh2			r_thigh3			r_thigh4			r_thigh5			L_thigh1			L_thigh2			L_thigh3			L_thigh4			r.ASIS			r.PSIS			L.ASIS			L.PSIS			C7			R_Shoulder			L_Shoulder			R_Sternum			L_Sternum			R_humerus			R_elbow_med			R_elbow_lat			R_forearm			R_wrist_radius			R_wrist_ulna			L_humerus			L_elbow_med			L_elbow_lat			L_forearm			L_wrist_radius			L_wrist_ulna			R_HJC			L_HJC			R_HJC_reg			L_HJC_reg			
		X1	Y1	Z1	X2	Y2	Z2	X3	Y3	Z3	X4	Y4	Z4	X5	Y5	Z5	X6	Y6	Z6	X7	Y7	Z7	X8	Y8	Z8	X9	Y9	Z9	X10	Y10	Z10	X11	Y11	Z11	X12	Y12	Z12	X13	Y13	Z13	X14	Y14	Z14	X15	Y15	Z15	X16	Y16	Z16	X17	Y17	Z17	X18	Y18	Z18	X19	Y19	Z19	X20	Y20	Z20	X21	Y21	Z21	X22	Y22	Z22	X23	Y23	Z23	X24	Y24	Z24	X25	Y25	Z25	X26	Y26	Z26	X27	Y27	Z27	X28	Y28	Z28	X29	Y29	Z29	X30	Y30	Z30	X31	Y31	Z31	X32	Y32	Z32	X33	Y33	Z33	X34	Y34	Z34	X35	Y35	Z35	X36	Y36	Z36	X37	Y37	Z37	X38	Y38	Z38	X39	Y39	Z39	X40	Y40	Z40	X41	Y41	Z41	X42	Y42	Z42	X43	Y43	Z43	X44	Y44	Z44	X45	Y45	Z45	X46	Y46	Z46	X47	Y47	Z47	X48	Y48	Z48	X49	Y49	Z49	X50	Y50	Z50	X51	Y51	Z51	

126	1.25000000	1455.09023	488.04224	-66.10948	1507.33200	433.17556	-87.66058	1518.54969	90.93436	-99.12967	1454.72093	65.18608	-141.15372	1626.05859	41.38491	-69.12292	1675.13027	76.79158	-122.00828	1212.05260	476.57040	-338.00632	1187.46713	378.02924	-343.86283	954.13787	168.97649	-315.57857	875.76188	168.23348	-269.92618	1005.92788	48.43550	-350.15295	1054.81927	51.84347	-296.64484	1512.86653	317.93900	-67.70591	1429.93672	426.26526	-55.16025	1438.46774	313.12170	-57.43970	1118.16956	439.33562	-344.67408	1046.64968	339.39297	-348.49958	1419.50378	808.50559	-31.17923	1449.01268	698.77089	-42.99733	1403.23335	662.38661	-11.42448	1313.87141	777.05651	-8.46904	1347.65477	666.27311	-21.16412	1196.03914	753.50054	-342.92082	1179.34554	615.04379	-324.05163	1302.85545	729.99312	-389.30275	1282.52797	596.48545	-361.69692	1406.10195	949.34150	-78.60882	1212.96827	991.02145	-141.80776	1399.83919	918.53857	-327.81622	1202.49125	990.02192	-242.75407	1204.70736	1389.92716	-225.50958	1303.60967	1364.84308	-43.14084	1297.06716	1353.47568	-402.84361	1346.83243	1367.64454	-202.64125	1350.76627	1367.68977	-243.70713	1306.33437	1229.17471	21.57440	1244.88708	1020.16507	-17.88758	1254.35780	1040.19225	49.55650	1312.84695	916.57195	84.42301	1332.68155	782.50343	106.81189	1304.39323	781.21621	127.68158	1345.79663	1245.62878	-454.96901	1379.12193	1009.06580	-396.52500	1397.34291	1038.15388	-470.27358	1506.02898	1000.40936	-450.73959	1631.93972	907.16966	-433.41079	1618.21869	887.84757	-458.76296	1325.76191	871.59892	-88.13882	1312.17732	854.72181	-293.46481	1336.23796	863.86687	-104.91412	1319.12359	862.23186	-269.79559	
127	1.26000000	1466.28932	489.13288	-65.03367	1517.17110	432.81703	-87.09082	1520.02291	90.60897	-99.69526	1455.39741	65.58784	-141.30191	1626.68757	40.26105	-69.15255	1676.27746	74.27317	-122.56499	1231.54675	475.07545	-337.69797	1204.09753	377.34869	-344.38827	964.52019	175.88563	-316.26380	887.40953	180.29792	-270.01169	1008.63645	51.35225	-349.83586	1058.16628	51.96479	-296.94203	1520.36482	317.42183	-67.42445	1439.92620	427.50892	-54.03525	1446.06812	314.19822	-56.43389	1136.96530	441.23384	-344.10696	1062.22704	343.53112	-348.17207	1432.09539	810.14031	-29.46112	1461.46150	700.44589	-41.55444	1415.81415	664.10201	-9.67872	1326.70897	778.95946	-6.11217	1360.19504	668.11996	-19.04111	1210.98534	751.07352	-340.40666	1196.90290	612.19616	-322.51050	1318.00806	729.72792	-387.22772	1300.21738	595.67961	-360.68092	1419.29626	951.35414	-76.96707	1225.55699	992.22443	-140.02843	1412.27065	919.29060	-325.99454	1214.92209	990.31991	-240.93597	1216.57722	1390.32981	-223.06918	1316.35751	1365.34839	-41.11943	1308.05597	1354.27901	-401.01944	1358.79803	1368.49487	-200.70183	1362.46724	1368.66265	-241.77932	1319.61417	1229.50347	23.24560	1257.95094	1020.68142	-16.65097	1267.62495	1040.43398	50.88029	1325.95930	916.68273	85.32432	1345.46451	782.38293	107.28490	1317.12842	781.11951	128.38425	1356.20862	1246.04557	-452.89746	1387.26166	1009.32079	-394.21255	1405.64242	1038.04603	-468.13779	1514.03211	998.94897	-447.98579	1638.76566	904.17677	-429.98652	1624.89190	885.03736	-455.49077	1339.03827	873.35950	-85.91648	1324.98558	855.27549	-291.10980	1349.30878	865.99824	-102.46256	1331.93529	862.88555	-267.29532	
128	1.27000000	1477.02556	490.20191	-63.99370	1526.52674	432.47192	-86.42120	1521.04342	90.40836	-100.13955	1455.78848	65.82230	-141.37583	1627.07414	39.62111	-69.10865	1677.00347	72.42361	-123.02813	1252.00226	473.50805	-337.73270	1221.79659	376.75048	-345.08802	976.29447	183.02444	-317.02324	901.05768	193.05613	-270.01141	1011.78425	54.98168	-349.44926	1061.86835	52.44296	-297.28457	1527.27578	316.94980	-67.10222	1449.35164	428.76642	-53.05588	1453.06345	315.38696	-55.67006	1156.97784	443.25012	-343.76945	1079.08418	347.79175	-347.92413	1444.72189	811.82380	-27.58231	1473.73163	702.06311	-40.00343	1428.10281	665.80738	-7.95360	1339.42016	780.96491	-3.74745	1372.41778	669.99304	-16.99952	1226.26077	748.33064	-337.93988	1215.21375	609.06643	-321.20404	1333.46617	729.53968	-385.24317	1318.61347	594.91232	-359.87258	1432.20018	953.41100	-75.20053	1237.96200	993.46362	-138.32255	1424.51039	920.15722	-324.02579	1227.15872	990.70453	-239.18838	1228.39646	1390.92327	-220.64942	1329.11947	1366.01255	-39.15677	1318.89445	1355.24471	-399.30604	1370.68917	1369.44764	-198.82631	1374.10197	1369.74534	-239.92219	1333.00184	1229.99353	24.88123	1271.03084	1021.35300	-15.33908	1281.00543	1040.82663	52.25858	1339.31165	916.97077	86.18569	1358.63124	782.47791	107.69990	1330.30121	781.21295	129.02212	1366.32548	1246.53449	-450.97064	1395.12787	1009.68307	-392.14558	1413.70278	1038.09640	-466.19550	1521.69154	997.47410	-445.37289	1645.14309	900.96796	-426.69181	1631.05078	882.07942	-452.40937	1352.01140	875.17306	-83.66899	1337.64535	855.92137	-288.73562	1362.16608	868.16926	-99.91836	1344.51922	863.66222	-264.67380	
129	1.28000000	1487.13755	491.12344	-62.94277	1535.32067	432.04628	-85.55695	1521.70612	90.28443	-100.37416	1456.00533	65.93628	-141.40908	1627.29045	39.29636	-69.00058	1677.43830	71.07647	-123.37084	1273.25838	471.90804	-338.07621	1240.50832	376.31021	-345.89048	989.46542	190.28631	-317.85691	916.79519	206.28503	-269.90908	1015.48524	59.41071	-348.99162	1066.04023	53.41546	-297.71569	1533.55361	316.43154	-66.66175	1458.12958	429.91393	-52.13676	1459.39415	316.55836	-55.10857	1178.05811	445.33950	-343.58052	1097.13675	352.13804	-347.68713	1457.34977	813.40744	-25.51366	1485.67966	703.42816	-38.29892	1439.91238	667.36418	-6.21595	1351.89778	782.99173	-1.43430	1384.17624	671.81798	-15.05060	1241.80691	745.32527	-335.51176	1234.14439	605.72686	-320.11978	1349.10926	729.43490	-383.42043	1337.55432	594.21307	-359.29989	1444.80066	955.46471	-73.33700	1250.18812	994.67594	-136.72696	1436.55141	921.11421	-321.93582	1239.17462	991.14263	-237.54892	1240.14402	1391.68518	-218.26710	1341.86068	1366.81151	-37.26781	1329.60859	1356.34546	-397.66545	1382.50119	1370.47608	-197.02611	1385.65391	1370.89263	-238.15148	1346.44218	1230.62839	26.47649	1284.13402	1022.14453	-13.96200	1294.48013	1041.35348	53.67971	1352.90417	917.42171	87.00816	1372.20029	782.78179	108.07277	1343.93772	781.49621	129.60392	1376.19303	1247.10330	-449.17500	1402.75420	1010.12463	-390.30825	1421.51628	1038.27524	-464.43334	1528.99970	995.98866	-442.91776	1651.08305	897.55860	-423.56256	1636.70860	879.00409	-449.54885	1364.67084	876.98641	-81.43624	1350.15307	856.62772	-286.38594	1374.83806	870.30826	-97.31058	1356.85329	864.53941	-261.95291	
130	1.29000000	1496.50378	491.79907	-61.84942	1543.50931	431.47351	-84.46897	1522.11581	90.18898	-100.39426	1456.13812	65.97647	-141.42392	1627.40431	39.14861	-68.85004	1677.69708	70.08450	-123.59450	1295.12492	470.34552	-338.65251	1260.15353	376.09980	-346.73631	1003.99262	197.56253	-318.73955	934.58032	219.67065	-269.67925	1019.92855	64.67414	-348.46668	1070.90126	55.01759	-298.28802	1539.21359	315.80483	-66.06682	1466.25285	430.86386	-51.17315	1465.07568	317.59707	-54.66285	1200.01626	447.44117	-343.43381	1116.25942	356.52842	-347.38930	1469.86912	814.74030	-23.26989	1497.17045	704.40068	-36.41439	1451.08506	668.66232	-4.44008	1364.02267	784.94593	0.76463	1395.36220	673.52764	-13.20298	1257.54818	742.14769	-333.10693	1253.52326	602.28756	-319.21696	1364.81493	729.42883	-381.79988	1356.84528	593.62552	-358.96264	1457.12094	957.46484	-71.41301	1262.24236	995.81078	-135.24978	1448.40168	922.13813	-319.77155	1250.96169	991.59789	-236.02632	1251.79742	1392.57556	-215.93011	1354.55576	1367.71797	-35.46198	1340.21001	1357.54146	-396.04909	1394.23097	1371.54844	-195.31337	1397.10745	1372.05709	-236.48122	1359.88414	1231.38877	28.02723	1297.26874	1023.02281	-12.52867	1308.03450	1041.99280	55.13027	1366.73382	918.01862	87.79386	1386.17727	783.27457	108.40239	1358.04333	781.95463	130.13863	1385.85081	1247.76014	-447.49505	1410.15888	1010.61542	-388.67496	1429.08130	1038.55131	-462.83352	1535.96000	994.49188	-440.62941	1656.57346	893.95019	-420.63099	1641.88180	875.83437	-446.93708	1377.04021	878.74552	-79.25555	1362.51087	857.36608	-284.10092	1387.35421	872.35936	-94.67842	1368.94211	865.48461	-259.17493	
131	1.30000000	1505.07226	492.18684	-60.70185	1551.08958	430.73512	-83.20528	1522.38146	90.08669	-100.27531	1456.24303	65.98297	-141.43309	1627.47285	39.08107	-68.68601	1677.86828	69.33726	-123.72140	1317.39954	468.92386	-339.36285	1280.63167	376.16971	-347.58617	1019.78969	204.75821	-319.61029	954.20814	232.82545	-269.28206	1025.40039	70.73702	-347.89420	1076.79328	57.36273	-299.05295	1544.33708	315.05740	-65.33276	1473.78316	431.58559	-50.07223	1470.19735	318.43581	-54.22932	1222.65283	449.50429	-343.24250	1136.30793	360.91188	-346.98261	1482.12884	815.71133	-20.91233	1508.10596	704.93269	-34.36222	1461.52647	669.65253	-2.62803	1375.70319	786.75336	2.79150	1405.91478	675.07507	-11.47087	1273.38987	738.92052	-330.71111	1273.15985	598.89010	-318.43083	1380.46104	729.54624	-380.39285	1376.27729	593.21011	-358.83474	1469.19479	959.35005	-69.47155	1274.12496	996.83990	-133.86836	1460.06527	923.20000	-317.59927	1262.53054	992.03747	-234.59810	1263.33432	1393.54625	-213.63839	1367.18885	1368.70230	-33.74220	1350.68878	1358.78803	-394.42073	1405.87253	1372.63248	-193.69966	1408.44859	1373.19902	-234.91991	1373.29010	1232.25158	29.52837	1310.43585	1023.95572	-11.04009	1321.65910	1042.71255	56.59439	1380.79480	918.74269	88.54514	1400.55755	783.92974	108.67892	1372.60665	782.56173	130.63338	1395.32474	1248.50280	-445.91673	1417.33630	1011.12570	-387.22019	1436.40013	1038.89290	-461.37840	1542.58478	992.97581	-438.51328	1661.57010	890.13320	-417.92510	1646.59125	872.58354	-444.59658	1389.15324	880.39378	-77.15979	1374.70532	858.11162	-281.91536	1399.70961	874.28610	-92.07230	1380.79587	866.45328	-256.40518	
